<svg xmlns="http://www.w3.org/2000/svg" width="197.334" height="42.017" viewBox="0 0 197.334 42.017"><defs><style>.a{fill:#7b7b7b;}</style></defs><g transform="translate(-268.666 -963.29)"><g transform="translate(268.666 963.29)"><g transform="translate(0 0)"><path class="a" d="M302.043,226.5a8.867,8.867,0,0,1-4.158,7.485l-.058.036a3.963,3.963,0,0,1-.352.191l-.388.191a11.7,11.7,0,0,1-4.621,1.062h-.081c-.049,0-.093.009-.143.009a11.74,11.74,0,0,1-5.19-1.185,11.526,11.526,0,0,1-2.422-1.584c.067-.049.13-.1.191-.147a20.484,20.484,0,0,0,8.212-15.871c0-.16,0-.33,0-.5a20.412,20.412,0,0,0-.229-3.033c-.071-.518-.174-1.048-.312-1.624a20.113,20.113,0,0,0-1.373-3.957,20.319,20.319,0,0,0-3.41-4.776,22.4,22.4,0,0,0-5.623-4.163A22.3,22.3,0,0,1,289.7,203.2a39.2,39.2,0,0,1,8.23,10.62l.107.205a39.113,39.113,0,0,1,2.935,7.146c.353,1.146.648,2.327.888,3.515A9.148,9.148,0,0,1,302.043,226.5Z" transform="translate(-217.813 -194.876)"/><path class="a" d="M282.126,215.7c0,.153,0,.305,0,.451a18.708,18.708,0,0,1-7.507,14.5c-.134.1-.264.2-.393.29-.156-.183-.312-.379-.468-.584-.116-.147-.236-.312-.362-.5a11.578,11.578,0,0,1-.937-1.678l-.044-.107c-.036-.076-.067-.153-.1-.249-.071-.174-.143-.352-.205-.526-.022-.08-.049-.161-.076-.237L272,227c-.018-.053-.036-.107-.049-.156,0,0-.179-.714-.478-1.994-.022-.08-.038-.16-.062-.229l-.089-.33c-.035-.138-.076-.272-.111-.405q-.114-.4-.229-.763c-.038-.121-.076-.241-.114-.357-.071-.236-.147-.464-.219-.673-.076-.241-.156-.478-.229-.66-.076-.241-.165-.482-.254-.714-.036-.093-.067-.187-.1-.276-.018-.05-.036-.1-.054-.143s-.031-.071-.044-.1c-.04-.1-.076-.2-.114-.294l-.014-.04c-.022-.058-.049-.121-.071-.183l-.018-.036s0,0,0-.01a.064.064,0,0,0-.01-.026l-.25-.6a.643.643,0,0,0-.027-.062c-.038-.1-.156-.357-.267-.61l-.232-.522a.464.464,0,0,1-.023-.05.126.126,0,0,1-.018-.036l-.022-.044c-.049-.094-.1-.2-.147-.305l-.067-.133c-.031-.067-.067-.134-.1-.205l-.053-.107c-.036-.071-.071-.143-.107-.219l-.076-.153c-.031-.071-.062-.134-.093-.191s-.076-.143-.107-.2l-.063-.121-.116-.223-.066-.13-.01-.009a.229.229,0,0,1-.018-.031c-.1-.21-.214-.41-.348-.638l-.022-.04c-.009-.013-.018-.031-.044-.084l-.2-.339c-.053-.094-.107-.191-.16-.281a.049.049,0,0,1-.014-.018s0-.009,0-.013l0,0-.027-.049c-.023-.036-.04-.072-.058-.1-.036-.063-.071-.116-.1-.174s-.066-.108-.1-.156a1.822,1.822,0,0,0-.125-.205c-.12-.205-.245-.41-.375-.61-.111-.183-.237-.375-.361-.558l-.027-.045-.446-.651,0,0-.031-.045c-.049-.071-.1-.147-.153-.223a1.213,1.213,0,0,0-.125-.174c-.058-.09-.125-.174-.183-.259a.009.009,0,0,1-.009-.009l0,0c-.023-.035-.045-.067-.067-.1a.252.252,0,0,1-.031-.038l-.067-.094a2.482,2.482,0,0,0-.153-.205l-.071-.1c-.026-.036-.045-.058-.067-.089-.161-.214-.321-.433-.486-.638-.267-.348-.54-.687-.817-1.026s-.562-.674-.883-1.035c-.21-.236-.42-.473-.607-.673-.062-.071-.124-.138-.191-.214-.058-.058-.111-.121-.174-.174q-.314-.348-.643-.669c-.031-.036-.071-.076-.12-.129l-.04-.041c-.031-.026-.063-.058-.089-.084-.281-.281-.562-.562-.825-.8l-.072-.071-.044-.038c-.223-.214-.45-.42-.669-.61-.25-.232-.509-.458-.763-.678l-.08-.071c-.1-.085-.2-.17-.3-.25a7.44,7.44,0,0,0,3.067-2.494l.362-.567c.114-.183.236-.352.361-.522l.022-.026v0a6.127,6.127,0,0,1,1.476-1.275,1.178,1.178,0,0,1,.107-.063,1.152,1.152,0,0,1,.107-.063,6.362,6.362,0,0,1,1.129-.5,1.069,1.069,0,0,1,.17-.054.426.426,0,0,1,.071-.022c.08-.022.16-.045.245-.067l.058-.014a1.244,1.244,0,0,1,.183-.044c.009,0,.022,0,.031,0l.049-.009h.009a9.233,9.233,0,0,1,3.252.183l.107.031a.9.9,0,0,1,.107.035l.2.058c.393.125.789.272,1.191.433l.1.038a21.336,21.336,0,0,1,7.743,5.679c.111.124.219.258.321.4a.419.419,0,0,1,.044.053c.174.224.343.45.5.683.114.161.229.325.334.491q.215.321.415.656c.094.156.188.312.277.473,0,.013.014.026.018.038.111.191.214.384.312.58s.205.4.3.606a18.055,18.055,0,0,1,1.259,3.609c.124.522.214,1,.285,1.472A18.789,18.789,0,0,1,282.126,215.7Z" transform="translate(-208.687 -194.397)"/><path class="a" d="M213.189,221.51a9.936,9.936,0,0,0-4.447,7.155,8.214,8.214,0,0,0-.071,1.2A10.994,10.994,0,0,1,207,235.887c-.111.2-.232.379-.352.566l-.05.076a12.812,12.812,0,0,1-15.813,4.42c-.035-.093-.063-.187-.089-.281a.615.615,0,0,1-.018-.063q-.087-.294-.161-.6a.256.256,0,0,1-.013-.063c-.054-.214-.1-.433-.147-.647s-.085-.446-.121-.669a.038.038,0,0,1,0-.022c-.035-.2-.063-.393-.084-.589a.923.923,0,0,1-.018-.116c-.027-.219-.044-.441-.063-.664-.013-.138-.022-.277-.026-.42-.01-.107-.014-.214-.018-.321-.009-.214-.013-.433-.013-.651a17.033,17.033,0,0,1,1.7-7.462,17.51,17.51,0,0,1,9.456-8.761c.321-.124.642-.241.964-.343a3.084,3.084,0,0,1,.307-.094c.143-.05.286-.09.429-.13l.745-.187c.13-.031.259-.058.388-.085l.1-.018a10.573,10.573,0,0,1,2.1-.205,10.7,10.7,0,0,1,1.891.17q.449.08.9.2c.147.041.3.085.446.13s.294.1.441.153.29.107.438.169.285.121.428.188.264.124.393.191c.022.014.045.023.067.036.124.067.245.134.37.205s.267.161.4.241.254.17.379.255a.222.222,0,0,0,.035.026c.12.085.236.17.357.264.071.053.138.107.21.165,0,0,.044.089.063.129C213.069,221.222,213.131,221.365,213.189,221.51Z" transform="translate(-183.352 -202.332)"/><path class="a" d="M206.578,215.072l-.111-.038c-.161-.058-.317-.111-.482-.161s-.348-.107-.522-.153-.339-.084-.509-.121c-.153-.038-.307-.071-.458-.1a11.517,11.517,0,0,0-1.168-.156s-.01,0-.014,0c-.071,0-.147-.013-.219-.018-.035,0-.071,0-.1,0-.254-.022-.513-.031-.776-.031-.174,0-.343,0-.518.014s-.366.023-.549.036a11,11,0,0,0-1.329.179.783.783,0,0,0-.138.027c-.076.018-.153.031-.229.049s-.147.031-.214.05a.373.373,0,0,0-.076.018l-.143.031-.058.013a19.661,19.661,0,0,0-2.427.768,19.307,19.307,0,0,0-10.42,9.651,18.884,18.884,0,0,0-1.874,8.234c0,.219,0,.433.014.652,0,.114.009.232.013.348.014.229.027.455.05.683.013.153.026.3.044.45.053.5.134,1,.232,1.5.009.076.026.153.04.229a12.669,12.669,0,0,1-2.186-1.994,12.456,12.456,0,0,1-3.078-8.185,7.752,7.752,0,0,1,.572-2.765c.124-.245.254-.491.393-.732a22.919,22.919,0,0,1,2.342-3.408q.522-.629,1.084-1.218a23.4,23.4,0,0,1,2.467-2.231c.437-.339.887-.664,1.347-.972h0a0,0,0,0,0,0,0c.464-.308.937-.6,1.423-.883q.529-.3,1.068-.576a22.515,22.515,0,0,1,2.106-.927c.156-.063.312-.121.473-.178.081-.027.161-.058.241-.081q.194-.073.388-.134c.161-.053.326-.107.486-.153.191-.063.389-.114.58-.17.174-.049.352-.1.526-.138.236-.058.478-.114.714-.165l.772-.147c.223-.04.45-.084.683-.12a11.425,11.425,0,0,1,5.825.651c.165.063.326.13.486.2A11.223,11.223,0,0,1,206.578,215.072Z" transform="translate(-179.372 -199.846)"/><path class="a" d="M232.1,228.668l-.058,0h-.053c-.161,0-.322.009-.486.009s-.322,0-.5-.009c-.114,0-.232-.009-.379-.018-.1,0-.2-.014-.321-.022l-.4-.038a14.747,14.747,0,0,1-1.825-.285,15.108,15.108,0,0,1-2.293-.683,15.6,15.6,0,0,1-1.935-.915,15.27,15.27,0,0,1-4.033-3.216c-.232-.258-.472-.549-.713-.861l-.094-.124c-.42-.589-.776-1.133-1.088-1.668l-.111-.2a24.349,24.349,0,0,1-1.3-2.511,25.067,25.067,0,0,1-1.6-4.733l-.053-.232q-.053-.254-.121-.522h0l-.2-.714a11.927,11.927,0,0,0-.46-1.226c-.058-.134-.114-.264-.179-.388l-.094-.188a12.349,12.349,0,0,0-1.168-1.927c-.08-.114-.165-.223-.25-.33l-.045-.053a13.037,13.037,0,0,0-10.206-4.907c-.17,0-.335,0-.5.009-.12,0-.241.009-.361.018q-.153.007-.308.026a.941.941,0,0,0-.165.014c-.089,0-.174.018-.263.026-.023,0-.041,0-.063.01h0l-.705.1c-.129.018-.24.038-.343.062a24.9,24.9,0,0,0-6.767,2.267c-.384.2-.767.4-1.142.61a25.442,25.442,0,0,0-3.069,2.07,40.753,40.753,0,0,1,21.187-14.573h.01c.058-.018.111-.031.17-.049v0l.026-.009c.41-.116.883-.245,1.392-.366.045-.009.09-.023.134-.031l.442-.107c.134-.031.272-.063.42-.094.165-.04.335-.076.5-.107l.25-.049a8.316,8.316,0,0,1,1.335-.107c.054,0,.107,0,.161,0a7.988,7.988,0,0,1,3.211.714,7.864,7.864,0,0,1,1.012.548,8.027,8.027,0,0,1,1.914,1.7c.076.1.153.191.224.29h0a8.652,8.652,0,0,1,.509.794s0,0,0,.009c.044.089.093.183.138.272.026.049.053.1.076.147l.107.229c.031.076.058.143.089.21l.018.041c.036.066.352.664.513.919a8.588,8.588,0,0,0,.575.8,6.285,6.285,0,0,0,.732.758,7.537,7.537,0,0,0,6.08,1.9.619.619,0,0,0,.063.05c.114.094.232.187.343.277.044.038.09.076.134.111l.049.038c.214.17.429.348.643.526a1.251,1.251,0,0,0,.12.1c.232.2.469.415.709.633.219.188.428.384.619.563l.121.114c.277.254.544.518.812.79l.219.223c.219.214.428.433.638.656l.053.053c.031.031.063.067.1.108s.094.1.165.178c.205.223.406.45.633.7.277.317.549.638.812.959s.531.651.789.986c.156.2.308.4.46.606l.178.236a.945.945,0,0,1,.076.107l.094.13a.247.247,0,0,0,.03.038l.027.038.04.058c.072.094.138.191.205.29l.076.112.009.009.16.229.031.045c.031.049.058.089.089.129.038.063.08.125.1.156l.174.258.038.058c.13.191.259.393.379.584s.245.393.361.589l.027.045a1.315,1.315,0,0,1,.084.138c.022.035.045.076.071.111.058.1.112.183.153.259a.145.145,0,0,0,.018.036c.01.018.022.036.031.049l.031.063c.05.08.1.174.153.254l.174.3c.031.063.063.12.094.17.107.2.214.393.308.572h0a0,0,0,0,1,0,0,1.393,1.393,0,0,0,.116.214l.049.1a.017.017,0,0,1,0,.014l.107.205c.031.058.067.124.1.191l.153.305c.045.089.085.174.116.232l.044.09c.027.058.053.111.076.165l.027.058c.009.014.018.031.027.05a.493.493,0,0,0,.026.049c0,.01,0,.014.01.023.053.111.1.218.156.325.009.018.018.035.027.058.027.063.063.138.1.229s.08.183.124.281c0,0,0,.013.01.018.093.21.187.415.236.526a.313.313,0,0,1,.018.045c.038.093.08.187.114.277s.076.183.112.272v0l.076.183,0,.009c.058.143.114.3.183.468s.13.326.2.5c.08.2.153.406.232.656.076.2.147.41.223.638.071.21.138.415.21.652.153.458.294.932.432,1.454l.1.352c.022.08.045.165.063.25l.063.241c.031.114.058.232.089.366.018.067.036.129.05.2A19.777,19.777,0,0,1,232.1,228.668Z" transform="translate(-182.767 -192.632)"/></g></g><g transform="translate(365.677 963.321)"><g transform="translate(0)"><path class="a" d="M153.978,296.528v16H148.62V296.361c0-3.379-2.091-5.676-5.321-5.676s-5.378,2.3-5.378,5.676V312.53H132.6V296.361c0-3.379-2.128-5.676-5.359-5.676s-5.321,2.3-5.321,5.676V312.53h-5.378v-16c0-6.105,3.921-10.119,9.914-10.119,4.07,0,7.244,1.831,8.811,4.854,1.568-3.024,4.742-4.854,8.811-4.854C150.076,286.409,153.978,290.423,153.978,296.528Z" transform="translate(-116.541 -286.409)"/><path class="a" d="M152.853,286.409c-7.916,0-13.7,5.582-13.7,13.293S144.937,313,152.853,313s13.667-5.582,13.667-13.293S160.769,286.409,152.853,286.409Zm-.056,21.956c-4.742,0-8.178-3.6-8.178-8.663,0-5,3.435-8.644,8.178-8.644,4.8,0,8.234,3.641,8.234,8.644C161.031,304.762,157.6,308.365,152.8,308.365Z" transform="translate(-96.951 -286.409)"/><path class="a" d="M182.919,299.7v12.825H177.6v-3.546A12.33,12.33,0,0,1,168.164,313c-7.194,0-12.459-5.577-12.459-13.293s5.684-13.293,13.607-13.293S182.919,291.987,182.919,299.7Zm-5.317,0c0-5.006-3.443-8.656-8.239-8.656-4.744,0-8.185,3.65-8.185,8.656,0,5.058,3.441,8.654,8.185,8.654C174.159,308.358,177.6,304.761,177.6,299.7Z" transform="translate(-82.596 -286.407)"/></g></g><g transform="translate(365.797 996.318)"><g transform="translate(0 0)"><path class="a" d="M186.137,290.421h.981a3.123,3.123,0,1,1,0-1.439h-1a2.3,2.3,0,1,0,.014,1.44Z" transform="translate(-180.794 -284.21)"/><path class="a" d="M200.229,286.783a3.174,3.174,0,1,0,2.366.895A3.183,3.183,0,0,0,200.229,286.783Zm-.014,5.645a2.413,2.413,0,0,1,0-4.819,2.412,2.412,0,0,1,0,4.819Z" transform="translate(-189.164 -284.315)"/><path class="a" d="M223.2,288.771V292.7h-.96v-3.973a1.452,1.452,0,1,0-2.88,0V292.7h-1.44v-3.973a1.452,1.452,0,1,0-2.88,0V292.7h-.96v-3.929a2.369,2.369,0,0,1,4.4-1.272l.161.317.161-.317a2.37,2.37,0,0,1,4.4,1.272Z" transform="translate(-198.107 -284.091)"/><path class="a" d="M246.2,288.771V292.7h-.96v-3.973a1.452,1.452,0,1,0-2.88,0V292.7h-.96v-3.973a1.68,1.68,0,1,0-3.36,0V292.7h-.96v-3.929a2.371,2.371,0,0,1,4.4-1.272l.161.317.161-.317a2.368,2.368,0,0,1,4.4,1.272Z" transform="translate(-210.067 -284.092)"/><path class="a" d="M265.844,286.587v3.686a2.889,2.889,0,0,1-5.759,0v-3.686h.959v3.686a1.92,1.92,0,1,0,3.84,0v-3.686Z" transform="translate(-222.029 -284.216)"/><path class="a" d="M280.844,289.028V292.7h-.96v-3.676a1.92,1.92,0,1,0-3.84,0V292.7h-.96v-3.676a2.888,2.888,0,0,1,5.759,0Z" transform="translate(-229.829 -284.095)"/><path class="a" d="M292.536,282.269a.693.693,0,0,1-1.377,0,.61.61,0,0,1,.691-.619.622.622,0,0,1,.686.619Z" transform="translate(-238.188 -281.645)"/><rect class="a" width="0.96" height="6.239" transform="translate(53.415 2.371)"/><path class="a" d="M302.664,290.421h.986a3.123,3.123,0,1,1,0-1.439h-1a2.178,2.178,0,0,0-2.1-1.606,2.327,2.327,0,1,0,2.116,3.046Z" transform="translate(-241.393 -284.211)"/><path class="a" d="M316.992,286.355a3.109,3.109,0,0,0-3.189,3.235,2.981,2.981,0,0,0,2.9,3.235,2.823,2.823,0,0,0,2.2-.97l.314-.379V292.7h.96v-3.115a3.105,3.105,0,0,0-3.184-3.233Zm-.049,5.852a2.413,2.413,0,0,1,0-4.819,2.412,2.412,0,0,1,0,4.819Z" transform="translate(-249.962 -284.095)"/><path class="a" d="M332.925,285.507v.48h-1.44v5.28h-.96v-5.279h-1.44v-.48h1.44v-1.92h.96v1.92Z" transform="translate(-257.912 -282.656)"/><path class="a" d="M341.491,282.27a.627.627,0,0,1-.687.619.62.62,0,0,1-.687-.619.607.607,0,0,1,.687-.619.619.619,0,0,1,.687.619Z" transform="translate(-263.649 -281.645)"/><rect class="a" width="0.96" height="6.239" transform="translate(76.453 2.371)"/><path class="a" d="M349.383,286.783a3.174,3.174,0,1,0,2.366.895A3.183,3.183,0,0,0,349.383,286.783Zm-.014,5.645a2.413,2.413,0,0,1,0-4.819,2.412,2.412,0,0,1,0,4.819Z" transform="translate(-266.731 -284.315)"/><path class="a" d="M368.844,289.028V292.7h-.96v-3.676a1.92,1.92,0,0,0-3.84,0V292.7h-.96v-3.676a2.888,2.888,0,0,1,5.759,0Z" transform="translate(-275.593 -284.095)"/><path class="a" d="M383.7,290.916c0,1.151-1.11,1.957-2.7,1.957-1.505,0-2.589-.74-2.717-1.819h1.053a1.587,1.587,0,0,0,1.706,1.12c.945,0,1.6-.483,1.6-1.171,0-.883-.827-1.032-1.669-1.182-1.335-.2-2.574-.576-2.574-1.945,0-1.151,1.033-1.927,2.574-1.927,1.411,0,2.429.709,2.543,1.747h-1a1.456,1.456,0,0,0-1.577-1.063c-.863,0-1.488.462-1.488,1.1,0,.889.775,1.038,1.623,1.2l.051,0C382.429,289.18,383.7,289.534,383.7,290.916Z" transform="translate(-283.494 -283.885)"/></g></g></g></svg>