<svg xmlns="http://www.w3.org/2000/svg" width="138.703" height="138.703" viewBox="0 0 138.703 138.703"><defs><style>.a{fill:#d1cece;}</style></defs><path class="a" d="M166.765,133.609a33.156,33.156,0,1,0,33.156,33.156A33.194,33.194,0,0,0,166.765,133.609Zm0,58.023a24.867,24.867,0,1,1,24.867-24.867A24.9,24.9,0,0,1,166.765,191.632Zm0,0" transform="translate(-97.414 -97.414)"/><path class="a" d="M135.439,53.558l-10.66-2.317a58.016,58.016,0,0,0-3.431-8.273l5.9-9.18a4.145,4.145,0,0,0-.556-5.171L110.086,12.008a4.145,4.145,0,0,0-5.172-.556l-9.18,5.9a58.019,58.019,0,0,0-8.273-3.431L85.144,3.263A4.144,4.144,0,0,0,81.094,0H57.608a4.144,4.144,0,0,0-4.05,3.264l-2.317,10.66a58.017,58.017,0,0,0-8.273,3.431l-9.18-5.9a4.145,4.145,0,0,0-5.171.556L12.009,28.616a4.145,4.145,0,0,0-.556,5.171l5.9,9.18a58.018,58.018,0,0,0-3.431,8.273L3.263,53.558A4.145,4.145,0,0,0,0,57.608V81.094a4.145,4.145,0,0,0,3.264,4.05l10.66,2.317a58.016,58.016,0,0,0,3.431,8.273l-5.9,9.18a4.145,4.145,0,0,0,.556,5.172l16.608,16.608a4.145,4.145,0,0,0,5.171.556l9.18-5.9a58.019,58.019,0,0,0,8.273,3.431l2.317,10.66a4.144,4.144,0,0,0,4.05,3.264H81.094a4.144,4.144,0,0,0,4.05-3.264l2.317-10.66a58.016,58.016,0,0,0,8.273-3.431l9.18,5.9a4.144,4.144,0,0,0,5.172-.556l16.608-16.608a4.145,4.145,0,0,0,.556-5.172l-5.9-9.18a58.019,58.019,0,0,0,3.431-8.273l10.66-2.317a4.145,4.145,0,0,0,3.264-4.05V57.608A4.145,4.145,0,0,0,135.439,53.558Zm-5.025,24.2-9.775,2.125a4.147,4.147,0,0,0-3.112,2.937,49.729,49.729,0,0,1-4.592,11.074,4.143,4.143,0,0,0,.123,4.278l5.413,8.419L106.588,118.47l-8.42-5.413a4.141,4.141,0,0,0-4.277-.123,49.756,49.756,0,0,1-11.075,4.592,4.147,4.147,0,0,0-2.937,3.112l-2.125,9.775h-16.8l-2.125-9.775a4.147,4.147,0,0,0-2.937-3.112,49.727,49.727,0,0,1-11.074-4.592,4.146,4.146,0,0,0-4.278.123l-8.419,5.413L20.233,106.587l5.412-8.419a4.143,4.143,0,0,0,.124-4.278,49.781,49.781,0,0,1-4.593-11.074,4.145,4.145,0,0,0-3.111-2.937L8.289,77.753v-16.8l9.775-2.125a4.147,4.147,0,0,0,3.112-2.937,49.728,49.728,0,0,1,4.592-11.074,4.143,4.143,0,0,0-.123-4.278l-5.413-8.419L32.115,20.232l8.42,5.413a4.141,4.141,0,0,0,4.277.123,49.757,49.757,0,0,1,11.075-4.592,4.147,4.147,0,0,0,2.937-3.112l2.125-9.775h16.8l2.125,9.775a4.147,4.147,0,0,0,2.937,3.112,49.728,49.728,0,0,1,11.074,4.592,4.146,4.146,0,0,0,4.278-.123l8.419-5.413,11.883,11.884-5.412,8.419a4.143,4.143,0,0,0-.124,4.278,49.732,49.732,0,0,1,4.593,11.074,4.145,4.145,0,0,0,3.111,2.937l9.776,2.125Zm0,0" transform="translate(0 0)"/></svg>